# xmcd CD database file generated by Grip 2.7
# 
# Track frame offsets:
#       150
#       11592
#       25932
#       38337
#       53052
#       66145
#       82107
#       95667
#       109672
#       123985
#       139510
#       152845
#       167700
#       181395
#       194230
#       207055
# 
# Disc length: 2938 seconds
# 
# Revision: 3
# Processed by: cddbd v1.4b41PL1 Copyright (c) Steve Scherf et al.
# Submitted via: Grip 2.7
# 
DISCID=d50b7810
DTITLE=The Carter Family - Gold Watch And Chain
DYEAR=1900
DGENRE=
TTITLE0=When the Roses Come Again
TTITLE1=I Loved This Better Than You Knew
TTITLE2=This is Heaven to Me
TTITLE3=See That My Grave is Kept Clean
TTITLE4=Over the Garden Wall
TTITLE5=Gold Watch and Chain
TTITLE6=School House on the Hill
TTITLE7=Will My Mother Know Me There?
TTITLE8=Faded Flowers
TTITLE9=Poor Little Orphaned Boy
TTITLE10=Cowboy Jack
TTITLE11=I'll Be All Smiles Tonight
TTITLE12=Away Out on the Saint Sabbath
TTITLE13=Darling Little Joe
TTITLE14=Happy On Lonesome
TTITLE15=One Little Word
EXTD=DISC: 1\nUPC: 011661107021\nLABEL: Rounder\nENSORECORD: 177666\n
EXTT0=PERFORMER: The Carter Family\n
EXTT1=PERFORMER: The Carter Family\n
EXTT2=PERFORMER: The Carter Family\n
EXTT3=PERFORMER: The Carter Family\n
EXTT4=PERFORMER: The Carter Family\n
EXTT5=PERFORMER: The Carter Family\n
EXTT6=PERFORMER: The Carter Family\n
EXTT7=PERFORMER: The Carter Family\n
EXTT8=PERFORMER: The Carter Family\n
EXTT9=PERFORMER: The Carter Family\n
EXTT10=PERFORMER: The Carter Family\n
EXTT11=PERFORMER: The Carter Family\n
EXTT12=PERFORMER: The Carter Family\n
EXTT13=PERFORMER: The Carter Family\n
EXTT14=PERFORMER: The Carter Family\n
EXTT15=PERFORMER: The Carter Family\n
PLAYORDER=
